<svg id="visual" viewBox="0 0 900 600" width="900" height="600" xmlns="http://www.w3.org/2000/svg" xmlns:xlink="http://www.w3.org/1999/xlink" version="1.1"><rect x="0" y="0" width="900" height="600" fill="#1a1a1a"></rect><g transform="translate(389.3054877592475 319.3344625905904)"><path d="M124 -222.8C148.7 -200.6 148.4 -143 179.6 -100C210.7 -57 273.4 -28.5 302.8 17C332.3 62.5 328.5 125 276.4 131.8C224.3 138.5 123.9 89.6 69.8 66C15.6 42.4 7.8 44.2 -25.5 88.4C-58.8 132.6 -117.7 219.1 -135.9 222C-154 224.8 -131.6 143.9 -135.8 93C-140.1 42 -171 21 -186.5 -8.9C-201.9 -38.8 -201.9 -77.7 -196.9 -127.5C-192 -177.3 -182.3 -238 -148.6 -255.1C-115 -272.2 -57.5 -245.6 -3.9 -238.8C49.7 -232 99.3 -245.1 124 -222.8" fill="#ff4081"></path></g></svg>