<svg id="visual" viewBox="0 0 1358 650" width="1358" height="650" xmlns="http://www.w3.org/2000/svg" xmlns:xlink="http://www.w3.org/1999/xlink" version="1.1"><rect x="0" y="0" width="1358" height="650" fill="#1a1a1a"></rect><defs><linearGradient id="grad1_0" x1="52.1%" y1="100%" x2="100%" y2="0%"><stop offset="8.215384615384611%" stop-color="#ff4081" stop-opacity="1"></stop><stop offset="91.78461538461539%" stop-color="#ff4081" stop-opacity="1"></stop></linearGradient></defs><defs><linearGradient id="grad1_1" x1="52.1%" y1="100%" x2="100%" y2="0%"><stop offset="8.215384615384611%" stop-color="#ff4081" stop-opacity="1"></stop><stop offset="91.78461538461539%" stop-color="#c13c65" stop-opacity="1"></stop></linearGradient></defs><defs><linearGradient id="grad1_2" x1="52.1%" y1="100%" x2="100%" y2="0%"><stop offset="8.215384615384611%" stop-color="#85344a" stop-opacity="1"></stop><stop offset="91.78461538461539%" stop-color="#c13c65" stop-opacity="1"></stop></linearGradient></defs><defs><linearGradient id="grad1_3" x1="52.1%" y1="100%" x2="100%" y2="0%"><stop offset="8.215384615384611%" stop-color="#85344a" stop-opacity="1"></stop><stop offset="91.78461538461539%" stop-color="#4e2931" stop-opacity="1"></stop></linearGradient></defs><defs><linearGradient id="grad1_4" x1="52.1%" y1="100%" x2="100%" y2="0%"><stop offset="8.215384615384611%" stop-color="#1a1a1a" stop-opacity="1"></stop><stop offset="91.78461538461539%" stop-color="#4e2931" stop-opacity="1"></stop></linearGradient></defs><defs><linearGradient id="grad2_0" x1="0%" y1="100%" x2="47.9%" y2="0%"><stop offset="8.215384615384611%" stop-color="#ff4081" stop-opacity="1"></stop><stop offset="91.78461538461539%" stop-color="#ff4081" stop-opacity="1"></stop></linearGradient></defs><defs><linearGradient id="grad2_1" x1="0%" y1="100%" x2="47.9%" y2="0%"><stop offset="8.215384615384611%" stop-color="#c13c65" stop-opacity="1"></stop><stop offset="91.78461538461539%" stop-color="#ff4081" stop-opacity="1"></stop></linearGradient></defs><defs><linearGradient id="grad2_2" x1="0%" y1="100%" x2="47.9%" y2="0%"><stop offset="8.215384615384611%" stop-color="#c13c65" stop-opacity="1"></stop><stop offset="91.78461538461539%" stop-color="#85344a" stop-opacity="1"></stop></linearGradient></defs><defs><linearGradient id="grad2_3" x1="0%" y1="100%" x2="47.9%" y2="0%"><stop offset="8.215384615384611%" stop-color="#4e2931" stop-opacity="1"></stop><stop offset="91.78461538461539%" stop-color="#85344a" stop-opacity="1"></stop></linearGradient></defs><defs><linearGradient id="grad2_4" x1="0%" y1="100%" x2="47.9%" y2="0%"><stop offset="8.215384615384611%" stop-color="#4e2931" stop-opacity="1"></stop><stop offset="91.78461538461539%" stop-color="#1a1a1a" stop-opacity="1"></stop></linearGradient></defs><g transform="translate(1358, 650)"><path d="M-455 0C-441.1 -31.2 -427.2 -62.5 -422.1 -96.4C-417.1 -130.2 -421 -166.7 -409.9 -197.4C-398.9 -228.1 -372.9 -253.1 -350.3 -279.3C-327.6 -305.6 -308.3 -333.1 -282.4 -354.2C-256.6 -375.2 -224.3 -389.8 -192.2 -399.1C-160.1 -408.5 -128.1 -412.7 -96.1 -421.2C-64.1 -429.6 -32.1 -442.3 0 -455L0 0Z" fill="#342225"></path><path d="M-364 0C-352.9 -25 -341.7 -50 -337.7 -77.1C-333.7 -104.2 -336.8 -133.4 -328 -157.9C-319.1 -182.5 -298.3 -202.5 -280.2 -223.5C-262.1 -244.5 -246.6 -266.5 -226 -283.3C-205.3 -300.2 -179.5 -311.8 -153.8 -319.3C-128.1 -326.8 -102.5 -330.2 -76.9 -336.9C-51.3 -343.7 -25.6 -353.8 0 -364L0 0Z" fill="#692f3d"></path><path d="M-273 0C-264.7 -18.7 -256.3 -37.5 -253.3 -57.8C-250.3 -78.1 -252.6 -100 -246 -118.5C-239.3 -136.9 -223.8 -151.8 -210.2 -167.6C-196.6 -183.3 -185 -199.9 -169.5 -212.5C-154 -225.1 -134.6 -233.9 -115.3 -239.5C-96.1 -245.1 -76.9 -247.6 -57.7 -252.7C-38.5 -257.8 -19.2 -265.4 0 -273L0 0Z" fill="#a33857"></path><path d="M-182 0C-176.4 -12.5 -170.9 -25 -168.9 -38.5C-166.8 -52.1 -168.4 -66.7 -164 -79C-159.6 -91.3 -149.2 -101.2 -140.1 -111.7C-131 -122.2 -123.3 -133.2 -113 -141.7C-102.6 -150.1 -89.7 -155.9 -76.9 -159.7C-64 -163.4 -51.3 -165.1 -38.5 -168.5C-25.6 -171.8 -12.8 -176.9 0 -182L0 0Z" fill="#df3e73"></path><path d="M-91 0C-88.2 -6.2 -85.4 -12.5 -84.4 -19.3C-83.4 -26 -84.2 -33.3 -82 -39.5C-79.8 -45.6 -74.6 -50.6 -70.1 -55.9C-65.5 -61.1 -61.7 -66.6 -56.5 -70.8C-51.3 -75 -44.9 -78 -38.4 -79.8C-32 -81.7 -25.6 -82.5 -19.2 -84.2C-12.8 -85.9 -6.4 -88.5 0 -91L0 0Z" fill="#ff4081"></path></g><g transform="translate(0, 0)"><path d="M455 0C450.9 33.7 446.9 67.4 439.7 100.4C432.5 133.3 422.3 165.5 408.1 196.5C394 227.6 376 257.4 352.6 281.2C329.2 305 300.4 322.7 274.3 344C248.3 365.3 224.9 390.2 196.5 408.1C168.2 426 134.8 436.9 101.2 443.6C67.7 450.2 33.8 452.6 0 455L0 0Z" fill="#342225"></path><path d="M364 0C360.7 27 357.5 53.9 351.8 80.3C346 106.7 337.8 132.4 326.5 157.2C315.2 182.1 300.8 205.9 282.1 225C263.4 244 240.3 258.2 219.5 275.2C198.6 292.3 179.9 312.2 157.2 326.5C134.6 340.8 107.9 349.6 81 354.9C54.1 360.2 27.1 362.1 0 364L0 0Z" fill="#692f3d"></path><path d="M273 0C270.6 20.2 268.1 40.4 263.8 60.2C259.5 80 253.4 99.3 244.9 117.9C236.4 136.5 225.6 154.4 211.6 168.7C197.5 183 180.2 193.6 164.6 206.4C149 219.2 134.9 234.1 117.9 244.9C100.9 255.6 80.9 262.2 60.7 266.2C40.6 270.1 20.3 271.6 0 273L0 0Z" fill="#a33857"></path><path d="M182 0C180.4 13.5 178.7 27 175.9 40.1C173 53.3 168.9 66.2 163.3 78.6C157.6 91 150.4 103 141 112.5C131.7 122 120.2 129.1 109.7 137.6C99.3 146.1 90 156.1 78.6 163.3C67.3 170.4 53.9 174.8 40.5 177.4C27.1 180.1 13.5 181 0 182L0 0Z" fill="#df3e73"></path><path d="M91 0C90.2 6.7 89.4 13.5 87.9 20.1C86.5 26.7 84.5 33.1 81.6 39.3C78.8 45.5 75.2 51.5 70.5 56.2C65.8 61 60.1 64.5 54.9 68.8C49.7 73.1 45 78 39.3 81.6C33.6 85.2 27 87.4 20.2 88.7C13.5 90 6.8 90.5 0 91L0 0Z" fill="#ff4081"></path></g></svg>