<svg id="visual" viewBox="0 0 900 600" width="900" height="600" xmlns="http://www.w3.org/2000/svg" xmlns:xlink="http://www.w3.org/1999/xlink" version="1.1"><rect x="0" y="0" width="900" height="600" fill="#1a1a1a"></rect><g transform="translate(546.2073315620288 298.36982969592276)"><path d="M91.7 -189.2C114.1 -145.9 124.2 -111.7 114.6 -81.7C105.1 -51.7 76 -25.8 74.8 -0.7C73.7 24.5 100.5 49 123.2 101.8C145.9 154.7 164.4 235.8 143.2 258.4C122 281 61 245 0.6 244C-59.8 243 -119.7 276.9 -169.8 271C-219.8 265.1 -260.2 219.3 -290.3 167.5C-320.3 115.7 -340.2 57.8 -344.2 -2.3C-348.3 -62.5 -336.5 -125 -281.7 -133.9C-226.8 -142.9 -128.9 -98.3 -74.8 -123.2C-20.7 -148.1 -10.3 -242.6 12.2 -263.6C34.7 -284.7 69.3 -232.4 91.7 -189.2" fill="#ff4081"></path></g></svg>