<svg id="visual" viewBox="0 0 900 600" width="900" height="600" xmlns="http://www.w3.org/2000/svg" xmlns:xlink="http://www.w3.org/1999/xlink" version="1.1"><rect x="0" y="0" width="900" height="600" fill="#1a1a1a"></rect><g transform="translate(490.3348248175259 249.1362399417465)"><path d="M72.8 -132.1C79.5 -122.1 60.1 -72.8 65.9 -44.2C71.7 -15.6 102.9 -7.8 112.4 5.5C122 18.8 109.9 37.7 118.8 91.8C127.7 145.9 157.6 235.3 141.3 235.8C125 236.2 62.5 147.6 21.8 109.8C-18.8 72 -37.7 84.9 -44.9 79.2C-52.1 73.6 -47.7 49.3 -90.8 33C-133.9 16.7 -224.4 8.3 -226.7 -1.3C-229.1 -11 -143.1 -22 -95 -29.6C-46.9 -37.3 -36.7 -41.6 -27.2 -49.9C-17.7 -58.3 -8.8 -70.6 12.1 -91.6C33 -112.5 66 -142 72.8 -132.1" fill="#ff4081"></path></g></svg>